<mxfile host="app.diagrams.net" modified="2024-06-20T14:22:44.711Z" agent="Mozilla/5.0 (Windows NT 10.0; Win64; x64) AppleWebKit/537.36 (KHTML, like Gecko) Chrome/126.0.0.0 Safari/537.36" etag="PgKPKQhLhz_cDr4hK-Zq" version="24.5.5" type="github" pages="5">
  <diagram name="Log In" id="2YBvvXClWsGukQMizWep">
    <mxGraphModel dx="1843" dy="746" grid="1" gridSize="10" guides="1" tooltips="1" connect="1" arrows="1" fold="1" page="1" pageScale="1" pageWidth="850" pageHeight="1100" math="0" shadow="0">
      <root>
        <mxCell id="0" />
        <mxCell id="1" parent="0" />
        <mxCell id="V3BoN_U_WXCdSb0CqOlQ-1" value="" style="ellipse;whiteSpace=wrap;html=1;aspect=fixed;fillColor=#000000;" vertex="1" parent="1">
          <mxGeometry x="389" y="220" width="50" height="50" as="geometry" />
        </mxCell>
        <mxCell id="V3BoN_U_WXCdSb0CqOlQ-2" value="" style="endArrow=classic;html=1;rounded=0;" edge="1" parent="1">
          <mxGeometry width="50" height="50" relative="1" as="geometry">
            <mxPoint x="413.52" y="280" as="sourcePoint" />
            <mxPoint x="413.52" y="390" as="targetPoint" />
          </mxGeometry>
        </mxCell>
        <mxCell id="V3BoN_U_WXCdSb0CqOlQ-3" value="Press Log In" style="edgeLabel;html=1;align=center;verticalAlign=middle;resizable=0;points=[];" vertex="1" connectable="0" parent="V3BoN_U_WXCdSb0CqOlQ-2">
          <mxGeometry x="-0.1424" y="2" relative="1" as="geometry">
            <mxPoint x="1" as="offset" />
          </mxGeometry>
        </mxCell>
        <mxCell id="V3BoN_U_WXCdSb0CqOlQ-4" value="start" style="text;whiteSpace=wrap;" vertex="1" parent="1">
          <mxGeometry x="450" y="230" width="30" height="30" as="geometry" />
        </mxCell>
        <mxCell id="V3BoN_U_WXCdSb0CqOlQ-5" value="Log In States" style="swimlane;whiteSpace=wrap;html=1;" vertex="1" parent="1">
          <mxGeometry x="189" y="560" width="450" height="330" as="geometry" />
        </mxCell>
        <mxCell id="V3BoN_U_WXCdSb0CqOlQ-6" value="" style="endArrow=classic;html=1;rounded=0;" edge="1" parent="V3BoN_U_WXCdSb0CqOlQ-5">
          <mxGeometry width="50" height="50" relative="1" as="geometry">
            <mxPoint x="231" y="125" as="sourcePoint" />
            <mxPoint x="231" y="205" as="targetPoint" />
          </mxGeometry>
        </mxCell>
        <mxCell id="V3BoN_U_WXCdSb0CqOlQ-7" value="Submit Information" style="swimlane;fontStyle=0;childLayout=stackLayout;horizontal=1;startSize=30;horizontalStack=0;resizeParent=1;resizeParentMax=0;resizeLast=0;collapsible=1;marginBottom=0;whiteSpace=wrap;html=1;" vertex="1" parent="V3BoN_U_WXCdSb0CqOlQ-5">
          <mxGeometry x="155" y="50" width="140" height="60" as="geometry" />
        </mxCell>
        <mxCell id="V3BoN_U_WXCdSb0CqOlQ-8" value="informationSubmit/" style="text;strokeColor=none;fillColor=none;align=left;verticalAlign=middle;spacingLeft=4;spacingRight=4;overflow=hidden;points=[[0,0.5],[1,0.5]];portConstraint=eastwest;rotatable=0;whiteSpace=wrap;html=1;" vertex="1" parent="V3BoN_U_WXCdSb0CqOlQ-7">
          <mxGeometry y="30" width="140" height="30" as="geometry" />
        </mxCell>
        <mxCell id="V3BoN_U_WXCdSb0CqOlQ-9" value="Verify Account" style="swimlane;fontStyle=0;childLayout=stackLayout;horizontal=1;startSize=30;horizontalStack=0;resizeParent=1;resizeParentMax=0;resizeLast=0;collapsible=1;marginBottom=0;whiteSpace=wrap;html=1;" vertex="1" parent="V3BoN_U_WXCdSb0CqOlQ-5">
          <mxGeometry x="155" y="220" width="140" height="60" as="geometry" />
        </mxCell>
        <mxCell id="V3BoN_U_WXCdSb0CqOlQ-10" value="checkInformation/" style="text;strokeColor=none;fillColor=none;align=left;verticalAlign=middle;spacingLeft=4;spacingRight=4;overflow=hidden;points=[[0,0.5],[1,0.5]];portConstraint=eastwest;rotatable=0;whiteSpace=wrap;html=1;" vertex="1" parent="V3BoN_U_WXCdSb0CqOlQ-9">
          <mxGeometry y="30" width="140" height="30" as="geometry" />
        </mxCell>
        <mxCell id="V3BoN_U_WXCdSb0CqOlQ-11" value="" style="endArrow=none;html=1;rounded=0;" edge="1" parent="V3BoN_U_WXCdSb0CqOlQ-5">
          <mxGeometry width="50" height="50" relative="1" as="geometry">
            <mxPoint x="311" y="250" as="sourcePoint" />
            <mxPoint x="492.52378627232144" y="250" as="targetPoint" />
          </mxGeometry>
        </mxCell>
        <mxCell id="V3BoN_U_WXCdSb0CqOlQ-12" value="" style="endArrow=classic;html=1;rounded=0;" edge="1" parent="1">
          <mxGeometry width="50" height="50" relative="1" as="geometry">
            <mxPoint x="430" y="920" as="sourcePoint" />
            <mxPoint x="430" y="1020" as="targetPoint" />
          </mxGeometry>
        </mxCell>
        <mxCell id="V3BoN_U_WXCdSb0CqOlQ-13" value="Idle" style="swimlane;whiteSpace=wrap;html=1;" vertex="1" parent="1">
          <mxGeometry x="349" y="400" width="130" height="100" as="geometry" />
        </mxCell>
        <mxCell id="V3BoN_U_WXCdSb0CqOlQ-14" value="" style="ellipse;html=1;shape=endState;fillColor=#000000;strokeColor=#ff0000;" vertex="1" parent="1">
          <mxGeometry x="410" y="1040" width="40" height="40" as="geometry" />
        </mxCell>
        <mxCell id="V3BoN_U_WXCdSb0CqOlQ-15" value="Process Complete" style="text;html=1;align=center;verticalAlign=middle;whiteSpace=wrap;rounded=0;" vertex="1" parent="1">
          <mxGeometry x="400" y="1090" width="60" height="30" as="geometry" />
        </mxCell>
        <mxCell id="V3BoN_U_WXCdSb0CqOlQ-16" value="&lt;font style=&quot;font-size: 36px;&quot;&gt;Log In&lt;/font&gt;" style="rounded=0;whiteSpace=wrap;html=1;fillColor=#fff2cc;strokeColor=#d6b656;" vertex="1" parent="1">
          <mxGeometry x="189" y="140" width="466" height="60" as="geometry" />
        </mxCell>
        <mxCell id="V3BoN_U_WXCdSb0CqOlQ-17" value="" style="endArrow=classic;html=1;rounded=0;" edge="1" parent="1">
          <mxGeometry width="50" height="50" relative="1" as="geometry">
            <mxPoint x="420" y="510" as="sourcePoint" />
            <mxPoint x="420" y="550" as="targetPoint" />
          </mxGeometry>
        </mxCell>
        <mxCell id="V3BoN_U_WXCdSb0CqOlQ-18" value="" style="endArrow=none;html=1;rounded=0;" edge="1" parent="1">
          <mxGeometry width="50" height="50" relative="1" as="geometry">
            <mxPoint x="680" y="460" as="sourcePoint" />
            <mxPoint x="680" y="810" as="targetPoint" />
          </mxGeometry>
        </mxCell>
        <mxCell id="V3BoN_U_WXCdSb0CqOlQ-19" value="" style="endArrow=classic;html=1;rounded=0;" edge="1" parent="1">
          <mxGeometry width="50" height="50" relative="1" as="geometry">
            <mxPoint x="680" y="460" as="sourcePoint" />
            <mxPoint x="500" y="460" as="targetPoint" />
          </mxGeometry>
        </mxCell>
      </root>
    </mxGraphModel>
  </diagram>
  <diagram id="4QFMC7-Duci63G3NJADG" name="Sign Up">
    <mxGraphModel dx="1290" dy="522" grid="1" gridSize="10" guides="1" tooltips="1" connect="1" arrows="1" fold="1" page="1" pageScale="1" pageWidth="827" pageHeight="1169" math="0" shadow="0">
      <root>
        <mxCell id="0" />
        <mxCell id="1" parent="0" />
        <mxCell id="dLrzrJarStA74B9m7kTu-1" value="" style="ellipse;whiteSpace=wrap;html=1;aspect=fixed;fillColor=#000000;" vertex="1" parent="1">
          <mxGeometry x="395" y="130" width="40" height="40" as="geometry" />
        </mxCell>
        <mxCell id="dLrzrJarStA74B9m7kTu-2" value="" style="endArrow=classic;html=1;rounded=0;" edge="1" parent="1">
          <mxGeometry width="50" height="50" relative="1" as="geometry">
            <mxPoint x="415" y="190" as="sourcePoint" />
            <mxPoint x="415" y="270" as="targetPoint" />
          </mxGeometry>
        </mxCell>
        <mxCell id="dLrzrJarStA74B9m7kTu-3" value="Click to Sign Up" style="edgeLabel;html=1;align=center;verticalAlign=middle;resizable=0;points=[];" vertex="1" connectable="0" parent="dLrzrJarStA74B9m7kTu-2">
          <mxGeometry x="-0.1424" y="2" relative="1" as="geometry">
            <mxPoint x="1" as="offset" />
          </mxGeometry>
        </mxCell>
        <mxCell id="dLrzrJarStA74B9m7kTu-4" value="start" style="text;whiteSpace=wrap;" vertex="1" parent="1">
          <mxGeometry x="461" y="135" width="30" height="30" as="geometry" />
        </mxCell>
        <mxCell id="dLrzrJarStA74B9m7kTu-5" value="Sign Up States" style="swimlane;whiteSpace=wrap;html=1;" vertex="1" parent="1">
          <mxGeometry x="280" y="480" width="270" height="290" as="geometry" />
        </mxCell>
        <mxCell id="dLrzrJarStA74B9m7kTu-6" value="" style="endArrow=classic;html=1;rounded=0;entryX=0.5;entryY=0;entryDx=0;entryDy=0;" edge="1" parent="dLrzrJarStA74B9m7kTu-5">
          <mxGeometry width="50" height="50" relative="1" as="geometry">
            <mxPoint x="133" y="150" as="sourcePoint" />
            <mxPoint x="133" y="210" as="targetPoint" />
          </mxGeometry>
        </mxCell>
        <mxCell id="dLrzrJarStA74B9m7kTu-7" value="Information Collection" style="swimlane;fontStyle=0;childLayout=stackLayout;horizontal=1;startSize=30;horizontalStack=0;resizeParent=1;resizeParentMax=0;resizeLast=0;collapsible=1;marginBottom=0;whiteSpace=wrap;html=1;" vertex="1" parent="dLrzrJarStA74B9m7kTu-5">
          <mxGeometry x="64" y="70" width="140" height="60" as="geometry" />
        </mxCell>
        <mxCell id="dLrzrJarStA74B9m7kTu-8" value="Collecting Information/" style="text;strokeColor=none;fillColor=none;align=left;verticalAlign=middle;spacingLeft=4;spacingRight=4;overflow=hidden;points=[[0,0.5],[1,0.5]];portConstraint=eastwest;rotatable=0;whiteSpace=wrap;html=1;" vertex="1" parent="dLrzrJarStA74B9m7kTu-7">
          <mxGeometry y="30" width="140" height="30" as="geometry" />
        </mxCell>
        <mxCell id="dLrzrJarStA74B9m7kTu-9" value="CAPCHA" style="swimlane;fontStyle=0;childLayout=stackLayout;horizontal=1;startSize=30;horizontalStack=0;resizeParent=1;resizeParentMax=0;resizeLast=0;collapsible=1;marginBottom=0;whiteSpace=wrap;html=1;" vertex="1" parent="dLrzrJarStA74B9m7kTu-5">
          <mxGeometry x="64" y="220" width="140" height="60" as="geometry" />
        </mxCell>
        <mxCell id="dLrzrJarStA74B9m7kTu-10" value="checkCAPCHA/" style="text;strokeColor=none;fillColor=none;align=left;verticalAlign=middle;spacingLeft=4;spacingRight=4;overflow=hidden;points=[[0,0.5],[1,0.5]];portConstraint=eastwest;rotatable=0;whiteSpace=wrap;html=1;" vertex="1" parent="dLrzrJarStA74B9m7kTu-9">
          <mxGeometry y="30" width="140" height="30" as="geometry" />
        </mxCell>
        <mxCell id="dLrzrJarStA74B9m7kTu-11" value="Idle" style="swimlane;whiteSpace=wrap;html=1;" vertex="1" parent="1">
          <mxGeometry x="350" y="290" width="130" height="100" as="geometry" />
        </mxCell>
        <mxCell id="dLrzrJarStA74B9m7kTu-12" value="" style="ellipse;html=1;shape=endState;fillColor=#000000;strokeColor=#ff0000;" vertex="1" parent="1">
          <mxGeometry x="406" y="1170" width="40" height="40" as="geometry" />
        </mxCell>
        <mxCell id="dLrzrJarStA74B9m7kTu-13" value="Process Complete" style="text;html=1;align=center;verticalAlign=middle;whiteSpace=wrap;rounded=0;" vertex="1" parent="1">
          <mxGeometry x="395" y="1220" width="60" height="30" as="geometry" />
        </mxCell>
        <mxCell id="dLrzrJarStA74B9m7kTu-14" value="&lt;font style=&quot;font-size: 36px;&quot;&gt;Sign Up&lt;/font&gt;" style="rounded=0;whiteSpace=wrap;html=1;fillColor=#fff2cc;strokeColor=#d6b656;" vertex="1" parent="1">
          <mxGeometry x="192" y="40" width="466" height="70" as="geometry" />
        </mxCell>
        <mxCell id="dLrzrJarStA74B9m7kTu-15" value="" style="endArrow=classic;html=1;rounded=0;" edge="1" parent="1">
          <mxGeometry width="50" height="50" relative="1" as="geometry">
            <mxPoint x="413" y="400" as="sourcePoint" />
            <mxPoint x="413" y="460" as="targetPoint" />
          </mxGeometry>
        </mxCell>
        <mxCell id="dLrzrJarStA74B9m7kTu-16" value="" style="endArrow=classic;html=1;rounded=0;" edge="1" parent="1">
          <mxGeometry width="50" height="50" relative="1" as="geometry">
            <mxPoint x="415.09000000000003" y="780" as="sourcePoint" />
            <mxPoint x="415.09000000000003" y="890" as="targetPoint" />
          </mxGeometry>
        </mxCell>
        <mxCell id="dLrzrJarStA74B9m7kTu-17" value="Accepted" style="edgeLabel;html=1;align=center;verticalAlign=middle;resizable=0;points=[];" vertex="1" connectable="0" parent="dLrzrJarStA74B9m7kTu-16">
          <mxGeometry x="-0.1067" y="1" relative="1" as="geometry">
            <mxPoint y="-1" as="offset" />
          </mxGeometry>
        </mxCell>
        <mxCell id="dLrzrJarStA74B9m7kTu-18" value="Log In States" style="swimlane;whiteSpace=wrap;html=1;" vertex="1" parent="1">
          <mxGeometry x="280" y="910" width="270" height="120" as="geometry" />
        </mxCell>
        <mxCell id="dLrzrJarStA74B9m7kTu-19" value="" style="endArrow=classic;html=1;rounded=0;" edge="1" parent="1">
          <mxGeometry width="50" height="50" relative="1" as="geometry">
            <mxPoint x="421" y="1040" as="sourcePoint" />
            <mxPoint x="421.38" y="1150" as="targetPoint" />
          </mxGeometry>
        </mxCell>
        <mxCell id="dLrzrJarStA74B9m7kTu-20" value="Accepted" style="edgeLabel;html=1;align=center;verticalAlign=middle;resizable=0;points=[];" vertex="1" connectable="0" parent="dLrzrJarStA74B9m7kTu-19">
          <mxGeometry x="-0.1067" y="1" relative="1" as="geometry">
            <mxPoint y="-1" as="offset" />
          </mxGeometry>
        </mxCell>
        <mxCell id="dLrzrJarStA74B9m7kTu-21" value="" style="endArrow=none;html=1;rounded=0;entryX=1.051;entryY=0.045;entryDx=0;entryDy=0;entryPerimeter=0;" edge="1" parent="1" target="dLrzrJarStA74B9m7kTu-10">
          <mxGeometry width="50" height="50" relative="1" as="geometry">
            <mxPoint x="641" y="731" as="sourcePoint" />
            <mxPoint x="311" y="480" as="targetPoint" />
          </mxGeometry>
        </mxCell>
        <mxCell id="dLrzrJarStA74B9m7kTu-22" value="" style="endArrow=none;html=1;rounded=0;" edge="1" parent="1">
          <mxGeometry width="50" height="50" relative="1" as="geometry">
            <mxPoint x="641" y="340" as="sourcePoint" />
            <mxPoint x="641" y="730" as="targetPoint" />
          </mxGeometry>
        </mxCell>
        <mxCell id="dLrzrJarStA74B9m7kTu-23" value="" style="endArrow=classic;html=1;rounded=0;entryX=1;entryY=0.5;entryDx=0;entryDy=0;" edge="1" parent="1" target="dLrzrJarStA74B9m7kTu-11">
          <mxGeometry width="50" height="50" relative="1" as="geometry">
            <mxPoint x="641" y="340" as="sourcePoint" />
            <mxPoint x="311" y="480" as="targetPoint" />
          </mxGeometry>
        </mxCell>
      </root>
    </mxGraphModel>
  </diagram>
  <diagram id="4vrp6KiESCC4PT_MTe8S" name="Browse General Library">
    <mxGraphModel dx="1290" dy="522" grid="1" gridSize="10" guides="1" tooltips="1" connect="1" arrows="1" fold="1" page="1" pageScale="1" pageWidth="827" pageHeight="1169" math="0" shadow="0">
      <root>
        <mxCell id="0" />
        <mxCell id="1" parent="0" />
        <mxCell id="Beee_8XZEgzTWxMA8ydq-1" value="&lt;font style=&quot;font-size: 36px;&quot;&gt;Browse General Library&lt;/font&gt;" style="rounded=0;whiteSpace=wrap;html=1;fillColor=#fff2cc;strokeColor=#d6b656;" vertex="1" parent="1">
          <mxGeometry x="192" y="40" width="466" height="70" as="geometry" />
        </mxCell>
        <mxCell id="Beee_8XZEgzTWxMA8ydq-2" value="" style="ellipse;whiteSpace=wrap;html=1;aspect=fixed;fillColor=#000000;" vertex="1" parent="1">
          <mxGeometry x="395" y="130" width="40" height="40" as="geometry" />
        </mxCell>
        <mxCell id="Beee_8XZEgzTWxMA8ydq-3" value="start" style="text;whiteSpace=wrap;" vertex="1" parent="1">
          <mxGeometry x="461" y="135" width="30" height="30" as="geometry" />
        </mxCell>
        <mxCell id="Beee_8XZEgzTWxMA8ydq-4" value="" style="endArrow=classic;html=1;rounded=0;" edge="1" parent="1">
          <mxGeometry width="50" height="50" relative="1" as="geometry">
            <mxPoint x="415" y="190" as="sourcePoint" />
            <mxPoint x="415" y="270" as="targetPoint" />
          </mxGeometry>
        </mxCell>
        <mxCell id="Beee_8XZEgzTWxMA8ydq-5" value="Idle" style="swimlane;whiteSpace=wrap;html=1;" vertex="1" parent="1">
          <mxGeometry x="350" y="280" width="130" height="100" as="geometry" />
        </mxCell>
        <mxCell id="Beee_8XZEgzTWxMA8ydq-6" value="Browse General Library States" style="swimlane;whiteSpace=wrap;html=1;" vertex="1" parent="1">
          <mxGeometry x="280" y="480" width="270" height="290" as="geometry" />
        </mxCell>
        <mxCell id="Beee_8XZEgzTWxMA8ydq-7" value="" style="endArrow=classic;html=1;rounded=0;entryX=0.5;entryY=0;entryDx=0;entryDy=0;" edge="1" parent="Beee_8XZEgzTWxMA8ydq-6">
          <mxGeometry width="50" height="50" relative="1" as="geometry">
            <mxPoint x="134.63" y="115" as="sourcePoint" />
            <mxPoint x="134.63" y="175" as="targetPoint" />
          </mxGeometry>
        </mxCell>
        <mxCell id="Beee_8XZEgzTWxMA8ydq-8" value="Browse Resources" style="swimlane;fontStyle=0;childLayout=stackLayout;horizontal=1;startSize=30;horizontalStack=0;resizeParent=1;resizeParentMax=0;resizeLast=0;collapsible=1;marginBottom=0;whiteSpace=wrap;html=1;" vertex="1" parent="Beee_8XZEgzTWxMA8ydq-6">
          <mxGeometry x="64" y="40" width="140" height="60" as="geometry" />
        </mxCell>
        <mxCell id="Beee_8XZEgzTWxMA8ydq-9" value="View Resource" style="swimlane;fontStyle=0;childLayout=stackLayout;horizontal=1;startSize=30;horizontalStack=0;resizeParent=1;resizeParentMax=0;resizeLast=0;collapsible=1;marginBottom=0;whiteSpace=wrap;html=1;" vertex="1" parent="Beee_8XZEgzTWxMA8ydq-6">
          <mxGeometry x="65" y="190" width="140" height="60" as="geometry" />
        </mxCell>
        <mxCell id="Beee_8XZEgzTWxMA8ydq-10" value="viewResource/" style="text;strokeColor=none;fillColor=none;align=left;verticalAlign=middle;spacingLeft=4;spacingRight=4;overflow=hidden;points=[[0,0.5],[1,0.5]];portConstraint=eastwest;rotatable=0;whiteSpace=wrap;html=1;" vertex="1" parent="Beee_8XZEgzTWxMA8ydq-9">
          <mxGeometry y="30" width="140" height="30" as="geometry" />
        </mxCell>
        <mxCell id="Beee_8XZEgzTWxMA8ydq-11" value="" style="endArrow=classic;html=1;rounded=0;" edge="1" parent="1">
          <mxGeometry width="50" height="50" relative="1" as="geometry">
            <mxPoint x="413" y="400" as="sourcePoint" />
            <mxPoint x="413" y="460" as="targetPoint" />
          </mxGeometry>
        </mxCell>
        <mxCell id="Beee_8XZEgzTWxMA8ydq-12" value="" style="endArrow=none;html=1;rounded=0;" edge="1" parent="1">
          <mxGeometry width="50" height="50" relative="1" as="geometry">
            <mxPoint x="200" y="710" as="sourcePoint" />
            <mxPoint x="340" y="710" as="targetPoint" />
          </mxGeometry>
        </mxCell>
        <mxCell id="Beee_8XZEgzTWxMA8ydq-13" value="" style="endArrow=classic;html=1;rounded=0;" edge="1" parent="1">
          <mxGeometry width="50" height="50" relative="1" as="geometry">
            <mxPoint x="200" y="560" as="sourcePoint" />
            <mxPoint x="340" y="560" as="targetPoint" />
          </mxGeometry>
        </mxCell>
        <mxCell id="Beee_8XZEgzTWxMA8ydq-14" value="" style="endArrow=none;html=1;rounded=0;" edge="1" parent="1">
          <mxGeometry width="50" height="50" relative="1" as="geometry">
            <mxPoint x="200" y="710" as="sourcePoint" />
            <mxPoint x="200" y="560" as="targetPoint" />
          </mxGeometry>
        </mxCell>
        <mxCell id="Beee_8XZEgzTWxMA8ydq-15" value="Wants to find more&lt;div&gt;resources&lt;/div&gt;" style="edgeLabel;html=1;align=center;verticalAlign=middle;resizable=0;points=[];" vertex="1" connectable="0" parent="Beee_8XZEgzTWxMA8ydq-14">
          <mxGeometry x="-0.0029" y="1" relative="1" as="geometry">
            <mxPoint as="offset" />
          </mxGeometry>
        </mxCell>
        <mxCell id="Beee_8XZEgzTWxMA8ydq-16" value="" style="ellipse;html=1;shape=endState;fillColor=#000000;strokeColor=#ff0000;" vertex="1" parent="1">
          <mxGeometry x="406" y="910" width="40" height="40" as="geometry" />
        </mxCell>
        <mxCell id="Beee_8XZEgzTWxMA8ydq-17" value="Process Complete" style="text;html=1;align=center;verticalAlign=middle;whiteSpace=wrap;rounded=0;" vertex="1" parent="1">
          <mxGeometry x="395" y="960" width="60" height="30" as="geometry" />
        </mxCell>
        <mxCell id="Beee_8XZEgzTWxMA8ydq-18" value="" style="endArrow=classic;html=1;rounded=0;" edge="1" parent="1">
          <mxGeometry width="50" height="50" relative="1" as="geometry">
            <mxPoint x="421" y="780" as="sourcePoint" />
            <mxPoint x="421.38" y="890" as="targetPoint" />
          </mxGeometry>
        </mxCell>
      </root>
    </mxGraphModel>
  </diagram>
  <diagram id="71XkL_AyIjhXyuu3tajw" name="Group Joining">
    <mxGraphModel dx="1290" dy="522" grid="1" gridSize="10" guides="1" tooltips="1" connect="1" arrows="1" fold="1" page="1" pageScale="1" pageWidth="827" pageHeight="1169" math="0" shadow="0">
      <root>
        <mxCell id="0" />
        <mxCell id="1" parent="0" />
        <mxCell id="U9qr5uvaacTtN17vUBfP-1" value="&lt;font style=&quot;font-size: 36px;&quot;&gt;Group Joining&lt;/font&gt;" style="rounded=0;whiteSpace=wrap;html=1;fillColor=#fff2cc;strokeColor=#d6b656;" vertex="1" parent="1">
          <mxGeometry x="192" y="40" width="466" height="70" as="geometry" />
        </mxCell>
        <mxCell id="U9qr5uvaacTtN17vUBfP-2" value="" style="ellipse;whiteSpace=wrap;html=1;aspect=fixed;fillColor=#000000;" vertex="1" parent="1">
          <mxGeometry x="395" y="130" width="40" height="40" as="geometry" />
        </mxCell>
        <mxCell id="U9qr5uvaacTtN17vUBfP-3" value="start" style="text;whiteSpace=wrap;" vertex="1" parent="1">
          <mxGeometry x="461" y="135" width="30" height="30" as="geometry" />
        </mxCell>
        <mxCell id="U9qr5uvaacTtN17vUBfP-4" value="" style="endArrow=classic;html=1;rounded=0;" edge="1" parent="1">
          <mxGeometry width="50" height="50" relative="1" as="geometry">
            <mxPoint x="415" y="190" as="sourcePoint" />
            <mxPoint x="415" y="270" as="targetPoint" />
          </mxGeometry>
        </mxCell>
        <mxCell id="U9qr5uvaacTtN17vUBfP-5" value="Idle" style="swimlane;whiteSpace=wrap;html=1;" vertex="1" parent="1">
          <mxGeometry x="350" y="280" width="130" height="100" as="geometry" />
        </mxCell>
        <mxCell id="U9qr5uvaacTtN17vUBfP-6" value="" style="endArrow=classic;html=1;rounded=0;" edge="1" parent="1">
          <mxGeometry width="50" height="50" relative="1" as="geometry">
            <mxPoint x="413" y="400" as="sourcePoint" />
            <mxPoint x="413" y="460" as="targetPoint" />
          </mxGeometry>
        </mxCell>
        <mxCell id="U9qr5uvaacTtN17vUBfP-7" value="Joining Group States" style="swimlane;whiteSpace=wrap;html=1;" vertex="1" parent="1">
          <mxGeometry x="200" y="480" width="440" height="420" as="geometry" />
        </mxCell>
        <mxCell id="U9qr5uvaacTtN17vUBfP-8" value="" style="endArrow=classic;html=1;rounded=0;exitX=0.5;exitY=1;exitDx=0;exitDy=0;" edge="1" parent="U9qr5uvaacTtN17vUBfP-7" source="U9qr5uvaacTtN17vUBfP-9">
          <mxGeometry width="50" height="50" relative="1" as="geometry">
            <mxPoint x="219.5" y="115" as="sourcePoint" />
            <mxPoint x="320" y="160" as="targetPoint" />
          </mxGeometry>
        </mxCell>
        <mxCell id="U9qr5uvaacTtN17vUBfP-9" value="Browse Group" style="swimlane;fontStyle=0;childLayout=stackLayout;horizontal=1;startSize=30;horizontalStack=0;resizeParent=1;resizeParentMax=0;resizeLast=0;collapsible=1;marginBottom=0;whiteSpace=wrap;html=1;" vertex="1" parent="U9qr5uvaacTtN17vUBfP-7">
          <mxGeometry x="144" y="40" width="140" height="60" as="geometry" />
        </mxCell>
        <mxCell id="U9qr5uvaacTtN17vUBfP-10" value="Join Group" style="swimlane;fontStyle=0;childLayout=stackLayout;horizontal=1;startSize=30;horizontalStack=0;resizeParent=1;resizeParentMax=0;resizeLast=0;collapsible=1;marginBottom=0;whiteSpace=wrap;html=1;" vertex="1" parent="U9qr5uvaacTtN17vUBfP-7">
          <mxGeometry x="280" y="170" width="140" height="60" as="geometry" />
        </mxCell>
        <mxCell id="U9qr5uvaacTtN17vUBfP-11" value="clickJoin/" style="text;strokeColor=none;fillColor=none;align=left;verticalAlign=middle;spacingLeft=4;spacingRight=4;overflow=hidden;points=[[0,0.5],[1,0.5]];portConstraint=eastwest;rotatable=0;whiteSpace=wrap;html=1;" vertex="1" parent="U9qr5uvaacTtN17vUBfP-10">
          <mxGeometry y="30" width="140" height="30" as="geometry" />
        </mxCell>
        <mxCell id="U9qr5uvaacTtN17vUBfP-12" value="" style="endArrow=classic;html=1;rounded=0;exitX=0.5;exitY=1;exitDx=0;exitDy=0;" edge="1" parent="U9qr5uvaacTtN17vUBfP-7" source="U9qr5uvaacTtN17vUBfP-9">
          <mxGeometry width="50" height="50" relative="1" as="geometry">
            <mxPoint x="219.5" y="117.5" as="sourcePoint" />
            <mxPoint x="110" y="160" as="targetPoint" />
          </mxGeometry>
        </mxCell>
        <mxCell id="U9qr5uvaacTtN17vUBfP-13" value="Join Private Group" style="swimlane;fontStyle=0;childLayout=stackLayout;horizontal=1;startSize=30;horizontalStack=0;resizeParent=1;resizeParentMax=0;resizeLast=0;collapsible=1;marginBottom=0;whiteSpace=wrap;html=1;" vertex="1" parent="U9qr5uvaacTtN17vUBfP-7">
          <mxGeometry x="30" y="170" width="140" height="60" as="geometry" />
        </mxCell>
        <mxCell id="U9qr5uvaacTtN17vUBfP-14" value="clickJoin/" style="text;strokeColor=none;fillColor=none;align=left;verticalAlign=middle;spacingLeft=4;spacingRight=4;overflow=hidden;points=[[0,0.5],[1,0.5]];portConstraint=eastwest;rotatable=0;whiteSpace=wrap;html=1;" vertex="1" parent="U9qr5uvaacTtN17vUBfP-13">
          <mxGeometry y="30" width="140" height="30" as="geometry" />
        </mxCell>
        <mxCell id="U9qr5uvaacTtN17vUBfP-15" value="Request Pending" style="swimlane;fontStyle=0;childLayout=stackLayout;horizontal=1;startSize=30;horizontalStack=0;resizeParent=1;resizeParentMax=0;resizeLast=0;collapsible=1;marginBottom=0;whiteSpace=wrap;html=1;" vertex="1" parent="U9qr5uvaacTtN17vUBfP-7">
          <mxGeometry x="30" y="280" width="140" height="60" as="geometry" />
        </mxCell>
        <mxCell id="U9qr5uvaacTtN17vUBfP-16" value="pendingRequest/" style="text;strokeColor=none;fillColor=none;align=left;verticalAlign=middle;spacingLeft=4;spacingRight=4;overflow=hidden;points=[[0,0.5],[1,0.5]];portConstraint=eastwest;rotatable=0;whiteSpace=wrap;html=1;" vertex="1" parent="U9qr5uvaacTtN17vUBfP-15">
          <mxGeometry y="30" width="140" height="30" as="geometry" />
        </mxCell>
        <mxCell id="U9qr5uvaacTtN17vUBfP-17" value="" style="endArrow=none;html=1;rounded=0;exitX=-0.016;exitY=0.227;exitDx=0;exitDy=0;exitPerimeter=0;" edge="1" parent="1" source="U9qr5uvaacTtN17vUBfP-16">
          <mxGeometry width="50" height="50" relative="1" as="geometry">
            <mxPoint x="350" y="690" as="sourcePoint" />
            <mxPoint x="120" y="797" as="targetPoint" />
          </mxGeometry>
        </mxCell>
        <mxCell id="U9qr5uvaacTtN17vUBfP-18" value="" style="endArrow=none;html=1;rounded=0;" edge="1" parent="1">
          <mxGeometry width="50" height="50" relative="1" as="geometry">
            <mxPoint x="120" y="800" as="sourcePoint" />
            <mxPoint x="120" y="360" as="targetPoint" />
          </mxGeometry>
        </mxCell>
        <mxCell id="U9qr5uvaacTtN17vUBfP-19" value="No" style="edgeLabel;html=1;align=center;verticalAlign=middle;resizable=0;points=[];" vertex="1" connectable="0" parent="U9qr5uvaacTtN17vUBfP-18">
          <mxGeometry x="-0.0134" y="1" relative="1" as="geometry">
            <mxPoint y="-1" as="offset" />
          </mxGeometry>
        </mxCell>
        <mxCell id="U9qr5uvaacTtN17vUBfP-20" value="" style="endArrow=classic;html=1;rounded=0;entryX=0;entryY=0.75;entryDx=0;entryDy=0;" edge="1" parent="1" target="U9qr5uvaacTtN17vUBfP-5">
          <mxGeometry width="50" height="50" relative="1" as="geometry">
            <mxPoint x="120" y="360" as="sourcePoint" />
            <mxPoint x="360" y="500" as="targetPoint" />
          </mxGeometry>
        </mxCell>
        <mxCell id="U9qr5uvaacTtN17vUBfP-21" value="" style="endArrow=classic;html=1;rounded=0;exitX=0.542;exitY=1.169;exitDx=0;exitDy=0;exitPerimeter=0;" edge="1" parent="1" source="U9qr5uvaacTtN17vUBfP-16">
          <mxGeometry width="50" height="50" relative="1" as="geometry">
            <mxPoint x="360" y="810" as="sourcePoint" />
            <mxPoint x="370" y="950" as="targetPoint" />
          </mxGeometry>
        </mxCell>
        <mxCell id="U9qr5uvaacTtN17vUBfP-22" value="yes" style="edgeLabel;html=1;align=center;verticalAlign=middle;resizable=0;points=[];" vertex="1" connectable="0" parent="U9qr5uvaacTtN17vUBfP-21">
          <mxGeometry x="-0.4267" y="-1" relative="1" as="geometry">
            <mxPoint as="offset" />
          </mxGeometry>
        </mxCell>
        <mxCell id="U9qr5uvaacTtN17vUBfP-23" value="" style="ellipse;html=1;shape=endState;fillColor=#000000;strokeColor=#ff0000;" vertex="1" parent="1">
          <mxGeometry x="386" y="950" width="40" height="40" as="geometry" />
        </mxCell>
        <mxCell id="U9qr5uvaacTtN17vUBfP-24" value="" style="endArrow=classic;html=1;rounded=0;" edge="1" parent="1">
          <mxGeometry width="50" height="50" relative="1" as="geometry">
            <mxPoint x="550" y="730" as="sourcePoint" />
            <mxPoint x="440" y="950" as="targetPoint" />
          </mxGeometry>
        </mxCell>
      </root>
    </mxGraphModel>
  </diagram>
  <diagram id="viLUNlxZr6Flua6292qd" name="Upload Reesources">
    <mxGraphModel dx="1843" dy="746" grid="1" gridSize="10" guides="1" tooltips="1" connect="1" arrows="1" fold="1" page="1" pageScale="1" pageWidth="827" pageHeight="1169" math="0" shadow="0">
      <root>
        <mxCell id="0" />
        <mxCell id="1" parent="0" />
        <mxCell id="b8M49-Hs1pJOdpeJCCP6-1" value="" style="ellipse;whiteSpace=wrap;html=1;aspect=fixed;fillColor=#000000;" vertex="1" parent="1">
          <mxGeometry x="395" y="130" width="40" height="40" as="geometry" />
        </mxCell>
        <mxCell id="b8M49-Hs1pJOdpeJCCP6-2" value="start" style="text;whiteSpace=wrap;" vertex="1" parent="1">
          <mxGeometry x="461" y="135" width="30" height="30" as="geometry" />
        </mxCell>
        <mxCell id="b8M49-Hs1pJOdpeJCCP6-3" value="" style="endArrow=classic;html=1;rounded=0;" edge="1" parent="1">
          <mxGeometry width="50" height="50" relative="1" as="geometry">
            <mxPoint x="415" y="190" as="sourcePoint" />
            <mxPoint x="415" y="270" as="targetPoint" />
          </mxGeometry>
        </mxCell>
        <mxCell id="b8M49-Hs1pJOdpeJCCP6-4" value="Idle" style="swimlane;whiteSpace=wrap;html=1;" vertex="1" parent="1">
          <mxGeometry x="350" y="280" width="130" height="100" as="geometry" />
        </mxCell>
        <mxCell id="b8M49-Hs1pJOdpeJCCP6-5" value="" style="endArrow=classic;html=1;rounded=0;" edge="1" parent="1">
          <mxGeometry width="50" height="50" relative="1" as="geometry">
            <mxPoint x="413" y="400" as="sourcePoint" />
            <mxPoint x="413" y="460" as="targetPoint" />
          </mxGeometry>
        </mxCell>
        <mxCell id="b8M49-Hs1pJOdpeJCCP6-6" value="&lt;font style=&quot;font-size: 36px;&quot;&gt;Upload Resources&lt;/font&gt;" style="rounded=0;whiteSpace=wrap;html=1;fillColor=#fff2cc;strokeColor=#d6b656;" vertex="1" parent="1">
          <mxGeometry x="192" y="40" width="466" height="70" as="geometry" />
        </mxCell>
        <mxCell id="b8M49-Hs1pJOdpeJCCP6-7" value="Joining Group States" style="swimlane;whiteSpace=wrap;html=1;" vertex="1" parent="1">
          <mxGeometry x="280" y="480" width="260" height="370" as="geometry" />
        </mxCell>
        <mxCell id="b8M49-Hs1pJOdpeJCCP6-8" value="Choose file to upload" style="swimlane;fontStyle=0;childLayout=stackLayout;horizontal=1;startSize=30;horizontalStack=0;resizeParent=1;resizeParentMax=0;resizeLast=0;collapsible=1;marginBottom=0;whiteSpace=wrap;html=1;" vertex="1" parent="b8M49-Hs1pJOdpeJCCP6-7">
          <mxGeometry x="70" y="40" width="140" height="60" as="geometry" />
        </mxCell>
        <mxCell id="b8M49-Hs1pJOdpeJCCP6-9" value="uploadingFile/" style="text;html=1;align=center;verticalAlign=middle;resizable=0;points=[];autosize=1;strokeColor=none;fillColor=none;" vertex="1" parent="b8M49-Hs1pJOdpeJCCP6-8">
          <mxGeometry y="30" width="140" height="30" as="geometry" />
        </mxCell>
        <mxCell id="b8M49-Hs1pJOdpeJCCP6-10" value="" style="endArrow=classic;html=1;rounded=0;exitX=0.5;exitY=1;exitDx=0;exitDy=0;" edge="1" parent="b8M49-Hs1pJOdpeJCCP6-7">
          <mxGeometry width="50" height="50" relative="1" as="geometry">
            <mxPoint x="139" y="110" as="sourcePoint" />
            <mxPoint x="139" y="210" as="targetPoint" />
          </mxGeometry>
        </mxCell>
        <mxCell id="b8M49-Hs1pJOdpeJCCP6-11" value="Admin verification" style="swimlane;fontStyle=0;childLayout=stackLayout;horizontal=1;startSize=30;horizontalStack=0;resizeParent=1;resizeParentMax=0;resizeLast=0;collapsible=1;marginBottom=0;whiteSpace=wrap;html=1;" vertex="1" parent="b8M49-Hs1pJOdpeJCCP6-7">
          <mxGeometry x="70" y="230" width="140" height="60" as="geometry" />
        </mxCell>
        <mxCell id="b8M49-Hs1pJOdpeJCCP6-12" value="checkingFile" style="text;html=1;align=center;verticalAlign=middle;resizable=0;points=[];autosize=1;strokeColor=none;fillColor=none;" vertex="1" parent="b8M49-Hs1pJOdpeJCCP6-11">
          <mxGeometry y="30" width="140" height="30" as="geometry" />
        </mxCell>
        <mxCell id="b8M49-Hs1pJOdpeJCCP6-13" value="" style="endArrow=classic;html=1;rounded=0;exitX=0.5;exitY=1;exitDx=0;exitDy=0;" edge="1" parent="b8M49-Hs1pJOdpeJCCP6-7">
          <mxGeometry width="50" height="50" relative="1" as="geometry">
            <mxPoint x="145.38" y="300" as="sourcePoint" />
            <mxPoint x="145.38" y="400" as="targetPoint" />
          </mxGeometry>
        </mxCell>
        <mxCell id="b8M49-Hs1pJOdpeJCCP6-14" value="Accepted" style="edgeLabel;html=1;align=center;verticalAlign=middle;resizable=0;points=[];" vertex="1" connectable="0" parent="b8M49-Hs1pJOdpeJCCP6-13">
          <mxGeometry x="-0.415" y="-3" relative="1" as="geometry">
            <mxPoint as="offset" />
          </mxGeometry>
        </mxCell>
        <mxCell id="b8M49-Hs1pJOdpeJCCP6-15" value="" style="ellipse;html=1;shape=endState;fillColor=#000000;strokeColor=#ff0000;" vertex="1" parent="1">
          <mxGeometry x="406" y="890" width="40" height="40" as="geometry" />
        </mxCell>
        <mxCell id="b8M49-Hs1pJOdpeJCCP6-16" value="" style="endArrow=none;html=1;rounded=0;entryX=1.021;entryY=-0.067;entryDx=0;entryDy=0;entryPerimeter=0;" edge="1" parent="1" target="b8M49-Hs1pJOdpeJCCP6-12">
          <mxGeometry width="50" height="50" relative="1" as="geometry">
            <mxPoint x="590" y="738" as="sourcePoint" />
            <mxPoint x="370" y="650" as="targetPoint" />
          </mxGeometry>
        </mxCell>
        <mxCell id="b8M49-Hs1pJOdpeJCCP6-17" value="Rejected" style="edgeLabel;html=1;align=center;verticalAlign=middle;resizable=0;points=[];" vertex="1" connectable="0" parent="b8M49-Hs1pJOdpeJCCP6-16">
          <mxGeometry x="-0.3612" relative="1" as="geometry">
            <mxPoint as="offset" />
          </mxGeometry>
        </mxCell>
        <mxCell id="b8M49-Hs1pJOdpeJCCP6-18" value="" style="endArrow=none;html=1;rounded=0;" edge="1" parent="1">
          <mxGeometry width="50" height="50" relative="1" as="geometry">
            <mxPoint x="590" y="320" as="sourcePoint" />
            <mxPoint x="590" y="740" as="targetPoint" />
          </mxGeometry>
        </mxCell>
        <mxCell id="b8M49-Hs1pJOdpeJCCP6-19" value="" style="endArrow=classic;html=1;rounded=0;" edge="1" parent="1">
          <mxGeometry width="50" height="50" relative="1" as="geometry">
            <mxPoint x="590" y="320" as="sourcePoint" />
            <mxPoint x="490" y="320" as="targetPoint" />
          </mxGeometry>
        </mxCell>
      </root>
    </mxGraphModel>
  </diagram>
</mxfile>
